<?xml version="1.0" encoding="utf-8"?>
<svg width="512px" height="256px" viewBox="0 0 512 256" version="1.1" xmlns:xlink="http://www.w3.org/1999/xlink" xmlns="http://www.w3.org/2000/svg">
  <defs>
    <path d="M496 0C504.838 0 512 7.16224 512 16L512 240C512 248.838 504.838 256 496 256L16 256C7.16211 256 0 248.838 0 240L0 16C0 7.16224 7.16211 0 16 0L496 0Z" id="path_1" />
    <path d="M0 0L512 0L512 256L0 256L0 0Z" id="path_2" />
    <clipPath id="clip_1">
      <use xlink:href="#path_1" clip-rule="evenodd" fill-rule="evenodd" />
    </clipPath>
    <clipPath id="clip_2">
      <use xlink:href="#path_2" clip-rule="evenodd" fill-rule="evenodd" transform="translate(0, -8.538002)" />
    </clipPath>
  </defs>
  <g id="Icon 513" clip-path="url(#clip_1)">
    <path d="M496 0C504.838 0 512 7.16224 512 16L512 240C512 248.838 504.838 256 496 256L16 256C7.16211 256 0 248.838 0 240L0 16C0 7.16224 7.16211 0 16 0L496 0Z" id="Icon-513" fill="#18AD00" stroke="none" />
    <g id="HYS" clip-path="url(#clip_2)" transform="translate(0 8.166008)">
      <g transform="translate(49.513992, 0)" id="HYS" fill="#FFFFFF">
        <path d="M110.348 52.528L142.1 52.528L142.1 189.728L110.348 189.728L110.348 52.528ZM48.02 189.728L16.268 189.728L16.268 52.528L48.02 52.528L48.02 189.728ZM112.7 133.476L45.668 133.476L45.668 106.624L112.7 106.624L112.7 133.476ZM208.74 189.728L208.74 133.672L215.992 152.88L155.624 52.528L189.336 52.528L235.592 129.556L216.188 129.556L262.64 52.528L293.804 52.528L233.436 152.88L240.492 133.672L240.492 189.728L208.74 189.728ZM349.272 192.08Q332.808 192.08 317.716 187.67Q302.624 183.26 293.412 176.204L304.192 152.292Q313.012 158.564 325.066 162.582Q337.12 166.6 349.468 166.6Q358.876 166.6 364.658 164.738Q370.44 162.876 373.184 159.544Q375.928 156.212 375.928 151.9Q375.928 146.412 371.616 143.178Q367.304 139.944 360.248 137.886Q353.192 135.828 344.666 133.966Q336.14 132.104 327.614 129.36Q319.088 126.616 312.032 122.304Q304.976 117.992 300.566 110.936Q296.156 103.88 296.156 92.904Q296.156 81.144 302.526 71.442Q308.896 61.74 321.734 55.958Q334.572 50.176 353.976 50.176Q366.912 50.176 379.456 53.214Q392 56.252 401.604 62.328L391.804 86.436Q382.2 80.948 372.596 78.302Q362.992 75.656 353.78 75.656Q344.568 75.656 338.688 77.812Q332.808 79.968 330.26 83.398Q327.712 86.828 327.712 91.336Q327.712 96.628 332.024 99.862Q336.336 103.096 343.392 105.056Q350.448 107.016 358.974 108.976Q367.5 110.936 376.026 113.484Q384.552 116.032 391.608 120.344Q398.664 124.656 403.074 131.712Q407.484 138.768 407.484 149.548Q407.484 161.112 401.016 170.716Q394.548 180.32 381.71 186.2Q368.872 192.08 349.272 192.08Z" />
      </g>
    </g>
  </g>
</svg>